<?xml version="1.0"?>
<svg xmlns="http://www.w3.org/2000/svg" viewBox="0 0 50 50">
    <path style="line-height:normal;text-indent:0;text-align:start;text-decoration-line:none;text-decoration-style:solid;text-decoration-color:#000;text-transform:none;block-progression:tb;isolation:auto;mix-blend-mode:normal" d="M 33.435547 2 C 31.497862 2 29.910506 3.2295622 28.869141 3.8339844 C 26.684848 5.1046984 25.35119 6 23.167969 6 C 23.287996 6 22.766895 5.9497076 22.228516 5.8574219 C 21.690136 5.7651361 21.004132 5.6413072 20.289062 5.515625 C 18.858925 5.2642607 17.410751 5 16.472656 5 C 15.648658 5 14.923013 5.1601809 14.324219 5.25 C 12.166432 5.5710152 10.869721 6.8171687 10.007812 8.0742188 C 9.1455216 9.3318287 8.5638996 10.571026 7.5703125 11.458984 C 7.1587162 11.825424 6.5097561 12.13173 5.8105469 12.564453 C 5.110781 12.997521 4.3068173 13.666027 4.03125 14.753906 C 3.7544737 15.845029 4.0303799 16.883394 4.3066406 17.820312 C 4.5829014 18.757231 4.8896021 19.633239 4.9511719 20.158203 C 5.1268054 21.661143 5.1479311 23.390082 4.84375 23.912109 L 4.8242188 23.943359 L 4.8085938 23.976562 C 4.2799749 25.062417 2.9519932 26.078269 2.3222656 27.945312 C 1.9026624 29.188986 2.0056803 30.358742 2.2441406 31.378906 C 2.4826009 32.399071 2.8327934 33.305651 3.0214844 34.205078 C 3.1696298 34.909517 3.0422794 35.470946 2.7929688 36.199219 C 2.5436583 36.927492 2.1510133 37.783798 2.0078125 38.869141 C 1.7735311 40.638812 2.3292055 42.208643 3.4082031 43.291016 C 4.4872007 44.373388 6.000062 45.000019 7.6992188 45.316406 L 7.7011719 45.316406 C 8.700494 45.501064 9.7683947 45.719961 10.828125 45.861328 L 10.818359 45.861328 C 11.118392 45.904378 12.346651 46.180794 13.580078 46.443359 C 14.80854 46.704868 16.053138 46.96509 16.951172 46.998047 C 16.951172 46.998047 16.953125 46.998047 16.953125 46.998047 C 17.156515 47.007847 17.356837 47.013672 17.554688 47.013672 C 21.367078 47.013672 23.318921 46.68382 26.949219 45.951172 C 27.950197 45.749831 29.180058 45.584307 30.3125 45.316406 C 32.520433 44.793976 34.841483 44.646074 37.244141 44.226562 C 39.492006 43.835721 41.259012 42.972211 42.453125 40.939453 C 42.893502 40.190019 43.611494 39.71932 44.488281 39.117188 C 45.365069 38.515054 46.412069 37.7383 46.935547 36.353516 C 47.545349 34.736449 48 33.327867 48 31 C 48 29.766629 47.590236 28.834504 47.126953 28.158203 C 46.70273 27.538922 46.314376 27.10278 46.003906 26.566406 C 45.933406 26.113618 45.932002 25.816449 46.044922 25.501953 C 46.171518 25.149361 46.454485 24.691849 46.902344 24.017578 L 46.902344 24.015625 C 47.622189 22.92624 48 21.4484 48 20 C 48 19.042537 47.622753 18.16231 47.341797 17.103516 C 47.060841 16.044721 46.865611 14.925539 46.988281 14.158203 L 47.003906 14.054688 L 46.998047 13.951172 C 46.942477 12.815706 46.350378 11.898927 45.636719 11.306641 C 44.923534 10.714748 44.104756 10.365392 43.373047 10.072266 L 43.371094 10.072266 C 42.491723 9.7177562 42.147293 9.4636291 42.060547 9.3359375 C 41.973703 9.2081012 41.90516 8.9390299 41.994141 8.1054688 C 42.103525 7.0707602 41.876319 6.1274851 41.394531 5.3964844 C 40.912743 4.6654837 40.223396 4.1601682 39.490234 3.78125 C 38.043914 3.033752 36.357108 2.714808 35.019531 2.3632812 C 34.501499 2.1145844 33.954805 2 33.435547 2 z M 33.435547 4 C 33.724242 4 33.968996 4.055055 34.222656 4.1933594 L 34.328125 4.25 L 34.373047 4.2617188 C 35.982843 4.8633153 36.626493 6.1420677 36.931641 7.6953125 C 37.237976 9.254607 37.085798 10.954619 37.003906 11.916016 C 36.986766 12.109667 36.878751 12.22855 36.583984 12.710938 C 36.288651 13.194251 35.95489 13.988136 36.001953 15.044922 C 36.037773 15.854809 36.378696 16.457576 36.619141 16.939453 C 36.859585 17.42133 36.998461 17.773321 37 18.005859 C 37.0068 19.002441 36.647862 19.562331 36.283203 20.509766 C 35.918545 21.4572 35.711612 22.783923 36.380859 24.457031 L 36.361328 24.404297 C 36.736656 25.519198 36.982216 26.376443 36.931641 26.830078 C 36.881061 27.283713 36.74673 27.585521 35.601562 28.083984 L 35.601562 28.082031 C 34.806731 28.42732 33.461068 28.689576 32.355469 29.345703 C 31.760201 29.697089 31.409477 29.948302 31.128906 30.101562 C 30.847812 30.255109 30.602348 30.353659 30.017578 30.470703 C 28.921844 30.68883 27.911054 31.057384 27.148438 31.816406 C 26.385373 32.575907 25.989542 33.691242 26 35.007812 L 26 35.009766 C 26.0099 36.110287 25.90146 36.497769 25.210938 37.386719 C 24.984938 37.677077 24.542553 38.10745 24.080078 38.4375 C 23.639971 38.751587 23.175502 38.950382 22.941406 38.990234 C 22.932561 38.977399 22.933772 38.97277 22.916016 38.953125 C 22.75855 38.77891 22.412752 38.281826 21.726562 38.056641 L 21.724609 38.056641 C 21.018617 37.826095 20.327824 37.915492 19.707031 38.109375 C 19.086239 38.303262 18.52463 38.61021 18.074219 39.037109 C 16.951918 40.100511 15.901077 41.3994 14.820312 42.388672 C 13.755382 43.363452 12.733415 43.976979 11.679688 43.994141 C 11.487714 43.956195 11.243594 43.90124 11.101562 43.880859 L 11.097656 43.880859 L 11.091797 43.878906 C 10.127637 43.750321 9.089131 43.540905 8.0644531 43.351562 C 6.6326099 43.08495 5.503721 42.560534 4.8242188 41.878906 C 4.1447164 41.197279 3.8254689 40.390188 3.9921875 39.130859 C 4.0889867 38.397202 4.3958573 37.693883 4.6855469 36.847656 C 4.9752365 36.001429 5.2263702 34.973483 4.9785156 33.794922 C 4.7472066 32.692349 4.3861959 31.757164 4.1914062 30.923828 C 3.9966166 30.090492 3.9434001 29.394312 4.2167969 28.583984 C 4.6059094 27.430326 5.7734127 26.508271 6.5742188 24.902344 C 7.4711524 23.347299 7.1150566 21.443539 6.9375 19.925781 L 6.9375 19.923828 C 6.8280698 18.990839 6.4733486 18.097488 6.2246094 17.253906 C 5.9758701 16.410325 5.8645263 15.656971 5.96875 15.246094 C 6.0761827 14.821973 6.3232971 14.597854 6.8632812 14.263672 C 7.4032655 13.929489 8.1818901 13.593343 8.9023438 12.951172 L 8.9042969 12.951172 C 10.271713 11.72913 10.930041 10.264218 11.65625 9.2050781 C 12.382459 8.1459382 13.023657 7.4632294 14.619141 7.2265625 L 14.621094 7.2265625 C 15.302252 7.1243816 15.924654 7 16.472656 7 C 16.934561 7 18.526793 7.2357393 19.941406 7.484375 C 20.648713 7.6086928 21.335161 7.7348639 21.890625 7.8300781 C 22.446089 7.9252924 22.742442 8 23.167969 8 C 25.916082 8 27.740006 6.8034634 29.873047 5.5625 C 31.057682 4.8749222 32.461232 4 33.435547 4 z M 38.277344 5.4316406 C 38.372751 5.4745819 38.48372 5.5108778 38.572266 5.5566406 C 39.109354 5.8342224 39.495085 6.1497976 39.724609 6.4980469 C 39.954134 6.8462962 40.074975 7.2407398 40.005859 7.8945312 C 39.90184 8.8689701 39.907839 9.7272733 40.40625 10.460938 C 40.904656 11.1946 41.656619 11.536876 42.626953 11.927734 L 42.628906 11.927734 C 43.309827 12.200488 43.947034 12.503489 44.359375 12.845703 C 44.76581 13.183016 44.966049 13.482123 44.998047 14.027344 C 44.842785 15.280867 45.120158 16.529728 45.408203 17.615234 C 45.710416 18.75444 46 19.832463 46 20 C 46 21.0516 45.632526 22.309541 45.234375 22.912109 C 44.780969 23.594712 44.404925 24.155327 44.164062 24.826172 C 43.922908 25.49783 43.876775 26.253935 44.033203 27.070312 L 44.060547 27.216797 L 44.128906 27.345703 C 44.59626 28.239383 45.143846 28.803363 45.476562 29.289062 C 45.809282 29.774762 46 30.150371 46 31 C 46 33.088133 45.660641 34.065549 45.064453 35.646484 C 44.758931 36.4547 44.184181 36.899633 43.355469 37.46875 C 42.526756 38.037867 41.455138 38.689215 40.728516 39.925781 C 39.800639 41.506057 38.908028 41.906787 36.900391 42.255859 L 36.900391 42.257812 C 34.641048 42.652302 32.27563 42.797524 29.851562 43.371094 C 28.862005 43.605193 27.653663 43.769575 26.556641 43.990234 L 26.554688 43.990234 C 22.942415 44.719271 21.257516 45.013672 17.554688 45.013672 C 17.385179 45.013672 17.218749 45.010173 17.048828 45.001953 L 17.041016 45 L 17.035156 45 C 16.688758 44.987965 15.9472 44.862319 15.144531 44.710938 C 15.50407 44.44758 15.845567 44.160178 16.169922 43.863281 C 17.407408 42.730553 18.47552 41.410879 19.449219 40.488281 C 19.611807 40.33418 19.959777 40.126644 20.302734 40.019531 C 20.64486 39.912678 20.970912 39.914871 21.101562 39.957031 C 21.125373 39.964831 21.173102 40.008891 21.431641 40.294922 C 21.690175 40.580957 22.358992 41.07689 23.109375 40.994141 C 23.930534 40.905301 24.618143 40.511763 25.242188 40.066406 C 25.866712 39.620707 26.404061 39.107923 26.789062 38.613281 C 27.66424 37.486753 28.011774 36.346766 28 34.992188 L 28 34.990234 C 27.9929 34.042751 28.208252 33.583065 28.558594 33.234375 C 28.909289 32.885332 29.513663 32.611513 30.408203 32.433594 L 30.410156 32.433594 L 30.410156 32.431641 C 31.129386 32.287684 31.649985 32.096626 32.087891 31.857422 C 32.525796 31.618218 32.848345 31.37599 33.373047 31.066406 L 33.375 31.066406 L 33.375 31.064453 C 33.981401 30.70458 35.287268 30.40068 36.398438 29.917969 L 36.398438 29.916016 C 37.895271 29.264479 38.788294 28.215849 38.917969 27.052734 C 39.047643 25.889619 38.625531 24.863723 38.255859 23.765625 L 38.248047 23.740234 L 38.238281 23.712891 C 37.723453 22.426182 37.869299 21.958831 38.150391 21.228516 C 38.431482 20.4982 39.010221 19.496559 39 17.994141 C 38.9945 17.168679 38.656462 16.540498 38.410156 16.046875 C 38.163851 15.553252 38.008225 15.185191 37.998047 14.955078 C 37.968107 14.282864 38.089097 14.084343 38.291016 13.753906 C 38.492932 13.42347 38.924924 12.907629 38.996094 12.085938 L 38.996094 12.083984 C 39.075197 11.155427 39.275946 9.2520024 38.894531 7.3105469 C 38.771685 6.6852391 38.565573 6.0456648 38.277344 5.4316406 z M 28.521484 11.080078 C 27.830183 11.113118 27.21904 11.3622 26.623047 11.654297 C 25.431062 12.238491 24.31096 13.085064 23.9375 13.355469 L 23.935547 13.355469 L 23.935547 13.357422 C 23.939747 13.354322 23.649173 13.502671 23.289062 13.648438 C 22.928953 13.794203 22.479844 13.970299 22.023438 14.208984 C 21.56703 14.44767 21.093699 14.747291 20.697266 15.197266 C 20.300879 15.647194 20 16.288068 20 17 L 20 17.013672 L 20 17.029297 C 20.02329 17.836549 20.326095 18.468688 20.5625 18.953125 C 20.798905 19.437562 20.966126 19.785893 21.007812 20.123047 L 21.007812 20.126953 L 21.007812 20.128906 C 21.090242 20.766722 21.101452 22.06721 21.330078 23.261719 C 21.444392 23.858973 21.605011 24.450837 21.962891 24.988281 C 22.316453 25.519243 22.994492 25.979002 23.75 25.990234 C 24.567723 26.023114 25.289804 25.715592 25.794922 25.326172 C 26.305844 24.932277 26.660191 24.490866 26.990234 24.140625 L 26.990234 24.138672 L 26.992188 24.138672 C 27.703488 23.378735 27.671244 23.343476 28.498047 22.867188 C 28.346718 22.954168 28.898165 22.798988 29.445312 22.65625 C 29.718886 22.58488 30.024563 22.497595 30.351562 22.257812 C 30.678162 22.018325 31.001774 21.507591 31 20.996094 L 31 20.994141 C 30.9976 20.533099 30.897118 20.187211 30.822266 19.806641 C 30.756724 19.473396 30.728931 19.201369 30.720703 19.099609 C 30.746281 19.083074 30.813061 18.935891 30.980469 18.757812 C 31.237963 18.483912 31.658509 18.207064 31.845703 17.46875 L 31.845703 17.466797 C 31.919773 17.175964 31.958668 16.876169 31.896484 16.554688 C 31.834164 16.232519 31.646961 15.930816 31.470703 15.75 C 31.118772 15.388967 30.909549 15.324081 30.748047 15.177734 C 30.418577 14.877327 30.49917 14.915256 30.560547 14.464844 C 30.621877 14.014761 30.860236 13.175635 30.462891 12.236328 L 30.462891 12.234375 C 30.297921 11.845284 29.988499 11.493745 29.621094 11.300781 C 29.253265 11.107595 28.867135 11.063556 28.521484 11.080078 z M 28.617188 13.076172 C 28.617188 13.076172 28.619141 13.076172 28.619141 13.076172 C 28.707851 13.328384 28.660065 13.594001 28.578125 14.195312 C 28.491755 14.829151 28.584825 15.912657 29.400391 16.65625 L 29.402344 16.65625 C 29.668421 16.898048 29.765664 16.950083 29.853516 17.003906 C 29.814805 17.036558 29.710981 17.187226 29.523438 17.386719 C 29.241286 17.686847 28.763341 18.030456 28.710938 18.869141 C 28.710938 18.869141 28.710938 18.871094 28.710938 18.871094 C 28.678328 19.381951 28.780218 19.790879 28.859375 20.193359 C 28.910585 20.453736 28.926492 20.563385 28.951172 20.716797 C 28.943172 20.718997 28.947773 20.718503 28.939453 20.720703 C 28.6126 20.805973 28.161282 20.753823 27.501953 21.132812 L 27.5 21.132812 C 26.566287 21.670599 26.225008 22.032528 25.535156 22.769531 C 25.146159 23.182249 24.836047 23.540332 24.574219 23.742188 C 24.312391 23.944043 24.158761 24.016601 23.826172 24 L 23.800781 23.998047 L 23.775391 23.998047 C 23.675032 23.998047 23.733701 24.039207 23.626953 23.878906 C 23.520207 23.718601 23.383108 23.347464 23.294922 22.886719 C 23.118889 21.967002 23.107128 20.772534 22.992188 19.878906 C 22.896877 19.10806 22.58047 18.529235 22.359375 18.076172 C 22.141451 17.629607 22.018809 17.317649 22.005859 16.986328 C 22.008559 16.792996 22.051919 16.684505 22.197266 16.519531 C 22.346895 16.349694 22.616377 16.156487 22.949219 15.982422 C 23.282061 15.808357 23.669612 15.6515 24.039062 15.501953 C 24.407708 15.352733 24.741076 15.243899 25.111328 14.974609 L 25.113281 14.972656 C 25.530597 14.670474 26.562537 13.910586 27.503906 13.449219 C 27.975039 13.218316 28.424582 13.085378 28.617188 13.076172 z M 30.707031 18.996094 C 30.706527 19.004935 30.707423 19.003961 30.707031 19.011719 C 30.707038 19.011002 30.705045 18.998556 30.705078 18.998047 L 30.707031 18.996094 z M 14.134766 22.042969 C 13.82486 22.059279 13.529379 22.1521 13.335938 22.287109 C 12.949051 22.557129 12.746299 22.871479 12.5625 23.179688 C 12.194901 23.796102 11.953238 24.481548 11.880859 24.662109 L 11.880859 24.664062 L 11.880859 24.666016 C 11.903689 24.608206 11.860659 24.688156 11.675781 24.871094 C 11.490904 25.054035 11.141942 25.37778 11.029297 25.947266 L 11.027344 25.955078 L 11.025391 25.962891 C 10.948231 26.384983 11.013328 26.642689 11.080078 26.933594 C 11.146828 27.224499 11.209657 27.47689 11.423828 27.798828 L 11.425781 27.802734 L 11.429688 27.804688 C 11.712756 28.223137 12.05701 28.460114 12.300781 28.630859 C 12.544552 28.801605 12.69293 28.915098 12.75 28.984375 L 12.75 28.986328 L 12.751953 28.988281 C 12.803013 29.049621 13.049702 29.602268 13.449219 30.148438 C 13.648977 30.421522 13.929127 30.740264 14.40625 30.908203 C 14.883373 31.076143 15.475904 30.976643 15.914062 30.71875 L 15.914062 30.716797 L 15.916016 30.716797 C 16.382513 30.439616 16.68747 29.981189 16.826172 29.601562 C 16.964873 29.221937 16.998055 28.911924 17.042969 28.689453 L 17.044922 28.685547 L 17.044922 28.681641 C 17.122092 28.281916 17.299575 27.791581 17.498047 27.410156 C 17.478427 27.449656 17.620238 27.274347 17.783203 26.980469 C 17.865803 26.831523 17.959853 26.632604 17.990234 26.355469 C 18.020554 26.078902 17.947874 25.72454 17.777344 25.457031 C 17.570517 25.134001 17.40863 25.121799 17.248047 25.058594 C 17.254247 24.916257 17.279332 24.71703 17.169922 24.382812 C 17.109422 24.194949 17.019575 23.984997 16.833984 23.789062 C 16.646483 23.59111 16.36415 23.459899 16.167969 23.417969 C 15.8714 23.354579 15.841451 23.379589 15.787109 23.386719 C 15.714189 23.176792 15.593683 22.64222 15.017578 22.253906 C 14.768318 22.085425 14.444671 22.026657 14.134766 22.042969 z M 14.154297 24.482422 C 14.221317 24.610355 14.250207 24.721865 14.384766 24.861328 C 14.608528 25.093249 14.956415 25.246591 15.296875 25.316406 C 15.295675 25.508469 15.275275 25.736262 15.460938 26.070312 C 15.569674 26.26593 15.673284 26.257683 15.806641 26.357422 C 15.769981 26.415752 15.770462 26.397592 15.726562 26.480469 L 15.726562 26.482422 L 15.724609 26.486328 C 15.437081 27.038903 15.204864 27.666459 15.082031 28.302734 L 15.082031 28.294922 C 15.030091 28.55222 14.998951 28.702344 14.96875 28.814453 C 14.82544 28.56809 14.681515 28.181546 14.292969 27.712891 L 14.289062 27.710938 C 13.987176 27.345887 13.666116 27.14411 13.449219 26.992188 C 13.23275 26.840566 13.127375 26.745175 13.087891 26.6875 C 13.138331 26.76216 13.058937 26.61552 13.029297 26.486328 C 13.018226 26.438074 13.016324 26.398399 13.013672 26.363281 C 13.028985 26.346681 13.035908 26.338612 13.082031 26.292969 C 13.231404 26.14516 13.544401 25.896199 13.740234 25.400391 C 13.829134 25.178385 13.994363 24.808899 14.154297 24.482422 z" font-weight="400" font-family="sans-serif" white-space="normal" overflow="visible"/>
</svg>
